<svg id="레이어_1" data-name="레이어 1" xmlns="http://www.w3.org/2000/svg" viewBox="0 0 218.47 33.6"><defs><style>.cls-1{isolation:isolate;}.cls-2{fill:#0d6fb0;}.cls-3{fill:#545656;}.cls-4{fill:#ccc;}.cls-5{fill:#fff;}</style></defs><title>logo</title><g class="cls-1"><g class="cls-1"><path class="cls-2" d="M168.71,250.1q-.09,7.56-3.48,11.81-3.7,4.59-10.41,4.59t-10.45-4.59q-3.48-4.38-3.48-11.81a22.23,22.23,0,0,1,.85-6.37,16.45,16.45,0,0,1,2.46-5.06,13.38,13.38,0,0,1,4.61-3.63,14.7,14.7,0,0,1,12,0,12.87,12.87,0,0,1,4.57,3.7,17.08,17.08,0,0,1,2.51,5.12A20.82,20.82,0,0,1,168.71,250.1Zm-3.1,0a18.35,18.35,0,0,0-.68-5.06,16,16,0,0,0-1.91-4.29,10.58,10.58,0,0,0-3.55-3.21,10.26,10.26,0,0,0-9.35,0,10.57,10.57,0,0,0-3.55,3.21,15.93,15.93,0,0,0-1.91,4.29,18.31,18.31,0,0,0-.68,5.06,18.52,18.52,0,0,0,.68,5.08,15.87,15.87,0,0,0,1.91,4.31,11.33,11.33,0,0,0,3.61,3.19,9.43,9.43,0,0,0,4.63,1.15,9.54,9.54,0,0,0,4.65-1.13,10.58,10.58,0,0,0,3.55-3.21,15.9,15.9,0,0,0,1.91-4.31A18.56,18.56,0,0,0,165.61,250.1Z" transform="translate(-140.89 -233.41)"/><path class="cls-2" d="M178.82,265.22a.53.53,0,0,1-.59.59h-1.91a.53.53,0,0,1-.59-.59V235.57q0-.93.19-1.1a2,2,0,0,1,1.08-.17h7.56a10.9,10.9,0,0,1,7.31,2.25,8.37,8.37,0,0,1,2.72,6.71,9.36,9.36,0,0,1-.79,3.93,8.07,8.07,0,0,1-2.19,2.89,9.52,9.52,0,0,1-3.31,1.76,12,12,0,0,1-4.08.51h-5.4Zm12.57-22a6.45,6.45,0,0,0-1.57-4.65,6.13,6.13,0,0,0-4.63-1.64h-6.37v12.7h3.44a28.54,28.54,0,0,0,3.67-.21,7.43,7.43,0,0,0,2.8-.89,4.87,4.87,0,0,0,1.85-1.93A8.16,8.16,0,0,0,191.4,243.26Z" transform="translate(-140.89 -233.41)"/><path class="cls-2" d="M201.42,265.86a.88.88,0,0,1-1.19-1.19V235.4a.82.82,0,0,1,1.1-1.1h14.74a.53.53,0,0,1,.59.59v1.49a.53.53,0,0,1-.59.59H203.33v11.21h12.11a.53.53,0,0,1,.59.59v1.53a.53.53,0,0,1-.59.59H203.33v12.23h13.25a.53.53,0,0,1,.59.59v1.53a.53.53,0,0,1-.59.59Z" transform="translate(-140.89 -233.41)"/><path class="cls-2" d="M226.78,265.82h-1.91a.53.53,0,0,1-.59-.59V235.49a.88.88,0,0,1,1.19-1.19h2a1.74,1.74,0,0,1,.74.11,1.24,1.24,0,0,1,.4.49l16,27.48V234.89a.53.53,0,0,1,.59-.59H247a.53.53,0,0,1,.59.59v29.74a.88.88,0,0,1-1.19,1.19h-2.59a1,1,0,0,1-.49-.08,1.28,1.28,0,0,1-.36-.42l-15.63-27v26.93A.53.53,0,0,1,226.78,265.82Z" transform="translate(-140.89 -233.41)"/></g><g class="cls-1"><path class="cls-3" d="M262.26,263.95a5.37,5.37,0,0,1-2.7,2.12,9.8,9.8,0,0,1-3.42.64q-.85,0-1.81-.06a6.92,6.92,0,0,1-1.51-.23,1,1,0,0,1-.55-.32,1.24,1.24,0,0,1-.13-.66v-3.91a1.21,1.21,0,0,1,.13-.72c.08-.08.37-.06.85.08a12,12,0,0,0,2.72.25,1.68,1.68,0,0,0,1.51-.85,6.47,6.47,0,0,0,.53-3.14V234.47q0-.85.76-.85h4.12q.89,0,.89.85v22.47a26.49,26.49,0,0,1-.28,3.87A7.61,7.61,0,0,1,262.26,263.95Z" transform="translate(-140.89 -233.41)"/><path class="cls-3" d="M271.95,266.37q-1,0-1.23-.25a2.47,2.47,0,0,1-.21-1.32V235.1a2.45,2.45,0,0,1,.19-1.23c.13-.17.52-.25,1.17-.25H287c.48,0,.75.08.81.25a2.58,2.58,0,0,1,.08.76V238a1.6,1.6,0,0,1-.13.79q-.13.19-.76.19H276.28V247h10.15q.68,0,.79.25a2.1,2.1,0,0,1,.11.76v3.31a1.39,1.39,0,0,1-.15.79c-.1.13-.35.19-.74.19H276.28v8.75h11.13c.45,0,.71.07.79.21a1.9,1.9,0,0,1,.11.76v3.31a2.08,2.08,0,0,1-.11.79c-.07.16-.33.23-.79.23Z" transform="translate(-140.89 -233.41)"/><path class="cls-3" d="M302.15,263.95a5.37,5.37,0,0,1-2.7,2.12,9.8,9.8,0,0,1-3.42.64q-.85,0-1.81-.06a6.92,6.92,0,0,1-1.51-.23,1,1,0,0,1-.55-.32,1.24,1.24,0,0,1-.13-.66v-3.91a1.21,1.21,0,0,1,.13-.72c.08-.08.37-.06.85.08a12,12,0,0,0,2.72.25,1.68,1.68,0,0,0,1.51-.85,6.47,6.47,0,0,0,.53-3.14V234.47q0-.85.76-.85h4.12q.89,0,.89.85v22.47a26.49,26.49,0,0,1-.28,3.87A7.61,7.61,0,0,1,302.15,263.95Z" transform="translate(-140.89 -233.41)"/><path class="cls-3" d="M330,264.5a11.06,11.06,0,0,1-3.59,1.89,15,15,0,0,1-8.43,0,10.45,10.45,0,0,1-3.53-1.91,10.07,10.07,0,0,1-3.21-4.27,15.56,15.56,0,0,1-1-5.76V234.55a1.36,1.36,0,0,1,.15-.66q.15-.28.7-.28h4.08a.75.75,0,0,1,.85.85V254.9a7.32,7.32,0,0,0,1.59,4.95,6.65,6.65,0,0,0,9.15,0,7.35,7.35,0,0,0,1.57-5V234.47a.75.75,0,0,1,.85-.85h4.08q.55,0,.7.28a1.38,1.38,0,0,1,.15.66v19.92a15.49,15.49,0,0,1-1,5.76A10.32,10.32,0,0,1,330,264.5Z" transform="translate(-140.89 -233.41)"/></g></g><polyline class="cls-2" points="199.46 0 218.46 0 218.46 19"/><path class="cls-4" d="M340.35,233.41v19h19C359.35,243.47,350.41,233.41,340.35,233.41Z" transform="translate(-140.89 -233.41)"/><path class="cls-5" d="M340.35,233.41s11.77,1.31,12.7,16.08c5.78,1.85,6.31,2.93,6.31,2.93C359.35,243.47,350.41,233.41,340.35,233.41Z" transform="translate(-140.89 -233.41)"/></svg>