<svg xmlns="http://www.w3.org/2000/svg" viewBox="0 0 293.22 44.8"><defs><style>.cls-1{fill:#323333;}.cls-2{fill:#0074bb;}.cls-3{fill:#cbcbcb;}</style></defs><title>자산 2</title><g id="레이어_2" data-name="레이어 2"><g id="레이어_1-2" data-name="레이어 1"><path class="cls-1" d="M37.62,22.12a31.66,31.66,0,0,1-1,7.7,21.31,21.31,0,0,1-3.16,7A16.87,16.87,0,0,1,27.7,42a18.1,18.1,0,0,1-8.89,2,18.1,18.1,0,0,1-8.89-2,16.87,16.87,0,0,1-5.79-5.16,21.29,21.29,0,0,1-3.16-7A31,31,0,0,1,1,14.42a21.29,21.29,0,0,1,3.16-7A16.9,16.9,0,0,1,9.92,2.22a18.11,18.11,0,0,1,8.89-2,18.1,18.1,0,0,1,8.89,2,16.9,16.9,0,0,1,5.79,5.16,21.31,21.31,0,0,1,3.16,7A31.66,31.66,0,0,1,37.62,22.12Zm-2.39,0a28.91,28.91,0,0,0-.86-6.87,19,19,0,0,0-2.82-6.36,15.68,15.68,0,0,0-5.1-4.67,15,15,0,0,0-7.64-1.82,14.92,14.92,0,0,0-7.67,1.82A15.78,15.78,0,0,0,6.07,8.89a19,19,0,0,0-2.82,6.36,29,29,0,0,0-.85,6.87A29,29,0,0,0,3.25,29a19,19,0,0,0,2.82,6.36A15.75,15.75,0,0,0,11.14,40a14.92,14.92,0,0,0,7.67,1.82A15,15,0,0,0,26.45,40a15.65,15.65,0,0,0,5.1-4.67A19,19,0,0,0,34.37,29,28.91,28.91,0,0,0,35.23,22.12Z"/><path class="cls-1" d="M72.1,12.94a13.33,13.33,0,0,1-.77,4.5A10.76,10.76,0,0,1,69,21.29,11.69,11.69,0,0,1,64.89,24a15.57,15.57,0,0,1-6,1H49.25V42.41a.71.71,0,0,1-.8.8h-.8a.71.71,0,0,1-.8-.8V1.71a.71.71,0,0,1,.8-.8H58.94a16,16,0,0,1,6,1A11.39,11.39,0,0,1,69,4.59a10.77,10.77,0,0,1,2.37,3.85A13.34,13.34,0,0,1,72.1,12.94Zm-2.39,0A10.22,10.22,0,0,0,69,9.06a9,9,0,0,0-2.11-3.14A10,10,0,0,0,63.5,3.85a12.62,12.62,0,0,0-4.56-.77H49.25V22.86h9.69a12.61,12.61,0,0,0,4.56-.77A9.76,9.76,0,0,0,66.86,20,9.24,9.24,0,0,0,69,16.81,10.22,10.22,0,0,0,69.71,12.94Z"/><path class="cls-1" d="M101,.91a.71.71,0,0,1,.8.8v.57a.71.71,0,0,1-.8.8H82.14V20.35h18a.71.71,0,0,1,.8.8v.57a.71.71,0,0,1-.8.8h-18V41.1h19.55a.71.71,0,0,1,.8.8v.57a.71.71,0,0,1-.8.8H80.54a.7.7,0,0,1-.8-.8V1.71a.71.71,0,0,1,.8-.8Z"/><path class="cls-1" d="M140.22,43.21a.9.9,0,0,1-.66-.2,5.1,5.1,0,0,1-.48-.6L114.8,3.82V42.41a.71.71,0,0,1-.8.8h-.8a.71.71,0,0,1-.8-.8V1.71a.71.71,0,0,1,.8-.8h1.88a.71.71,0,0,1,.6.2q.14.2.37.6l24.45,38.7V1.71a.71.71,0,0,1,.8-.8h.8a.71.71,0,0,1,.8.8v40.7a.71.71,0,0,1-.8.8Z"/><path class="cls-2" d="M163,40.7a7.21,7.21,0,0,1-3.62,2.85,13.14,13.14,0,0,1-4.59.86q-1.14,0-2.42-.09a9.26,9.26,0,0,1-2-.31,1.33,1.33,0,0,1-.74-.43,1.68,1.68,0,0,1-.17-.88V37.45a1.63,1.63,0,0,1,.17-1q.17-.17,1.14.11a16,16,0,0,0,3.65.34,2.26,2.26,0,0,0,2-1.14,8.66,8.66,0,0,0,.71-4.22V1.14q0-1.14,1-1.14h5.53q1.2,0,1.2,1.14V31.29a35.58,35.58,0,0,1-.37,5.19A10.21,10.21,0,0,1,163,40.7Z"/><path class="cls-2" d="M176,43.95q-1.37,0-1.65-.34a3.3,3.3,0,0,1-.29-1.77V2a3.28,3.28,0,0,1,.26-1.65c.17-.23.69-.34,1.57-.34h20.29q1,0,1.08.34a3.49,3.49,0,0,1,.11,1V5.81a2.14,2.14,0,0,1-.17,1.05q-.17.26-1,.26H181.77V18h13.62q.91,0,1.05.34a2.84,2.84,0,0,1,.14,1v4.45a1.88,1.88,0,0,1-.2,1.05q-.2.26-1,.26H181.77V36.82H196.7q.91,0,1.05.29a2.55,2.55,0,0,1,.14,1v4.45a2.79,2.79,0,0,1-.14,1.05c-.1.21-.45.31-1.05.31Z"/><path class="cls-2" d="M216.48,40.7a7.21,7.21,0,0,1-3.62,2.85,13.14,13.14,0,0,1-4.59.86q-1.14,0-2.42-.09a9.26,9.26,0,0,1-2-.31,1.33,1.33,0,0,1-.74-.43,1.68,1.68,0,0,1-.17-.88V37.45a1.63,1.63,0,0,1,.17-1q.17-.17,1.14.11a16,16,0,0,0,3.65.34,2.26,2.26,0,0,0,2-1.14,8.66,8.66,0,0,0,.71-4.22V1.14q0-1.14,1-1.14h5.53q1.2,0,1.2,1.14V31.29a35.58,35.58,0,0,1-.37,5.19A10.21,10.21,0,0,1,216.48,40.7Z"/><path class="cls-2" d="M253.82,41.44A14.83,14.83,0,0,1,249,44a20.11,20.11,0,0,1-11.31,0A14,14,0,0,1,233,41.44a13.52,13.52,0,0,1-4.3-5.73A20.89,20.89,0,0,1,227.31,28V1.25a1.83,1.83,0,0,1,.2-.88q.2-.37.94-.37h5.47a1,1,0,0,1,1.14,1.14V28.56a9.82,9.82,0,0,0,2.14,6.64,8.92,8.92,0,0,0,12.28.06,9.86,9.86,0,0,0,2.11-6.7V1.14A1,1,0,0,1,252.73,0h5.47q.74,0,.94.37a1.84,1.84,0,0,1,.2.88V28A20.79,20.79,0,0,1,258,35.71,13.86,13.86,0,0,1,253.82,41.44Z"/><polyline class="cls-3" points="293.22 25.73 267.72 25.73 267.72 0.23"/><polyline class="cls-2" points="267.72 0.23 293.22 0.23 293.22 25.73"/><polyline class="cls-2" points="267.72 0.23 293.22 0.23 293.22 25.73"/></g></g></svg>